<?xml version="1.0" encoding="UTF-8" standalone="no"?>
<!-- Generator: Adobe Illustrator 26.0.1, SVG Export Plug-In . SVG Version: 6.00 Build 0)  -->

<svg
   version="1.1"
   id="Capa_1"
   x="0px"
   y="0px"
   viewBox="0 0 24.242424 24.242424"
   xml:space="preserve"
   width="24"
   height="24"
   sodipodi:docname="whatsapp.svg"
   inkscape:version="1.4.2 (ebf0e940d0, 2025-05-08)"
   xmlns:inkscape="http://www.inkscape.org/namespaces/inkscape"
   xmlns:sodipodi="http://sodipodi.sourceforge.net/DTD/sodipodi-0.dtd"
   xmlns="http://www.w3.org/2000/svg"
   xmlns:svg="http://www.w3.org/2000/svg"><defs
   id="defs1" /><sodipodi:namedview
   id="namedview1"
   pagecolor="#ffffff"
   bordercolor="#000000"
   borderopacity="0.25"
   inkscape:showpageshadow="2"
   inkscape:pageopacity="0.0"
   inkscape:pagecheckerboard="0"
   inkscape:deskcolor="#d1d1d1"
   inkscape:zoom="17.526022"
   inkscape:cx="13.094814"
   inkscape:cy="8.587231"
   inkscape:window-width="1025"
   inkscape:window-height="1030"
   inkscape:window-x="0"
   inkscape:window-y="0"
   inkscape:window-maximized="1"
   inkscape:current-layer="g1" />
<g
   id="WA_Logo">
	<g
   id="g1">
		<path
   style="clip-rule:evenodd;fill:#687144;fill-opacity:1;fill-rule:evenodd"
   d="M 20.463,3.488 C 18.217,1.24 15.231,0.001 12.05,0 5.495,0 0.16,5.334 0.157,11.892 0.156,13.988 0.704,16.034 1.745,17.838 L 0.057,24 6.361,22.346 c 1.737,0.948 3.693,1.447 5.683,1.448 h 0.005 c 6.554,0 11.89,-5.335 11.893,-11.893 C 23.944,8.724 22.708,5.735 20.463,3.488 Z M 12.05,21.785 h -0.004 c -1.774,0 -3.513,-0.477 -5.031,-1.378 L 6.654,20.193 2.913,21.174 3.912,17.526 3.677,17.152 c -0.99,-1.574 -1.512,-3.393 -1.511,-5.26 0.002,-5.45 4.437,-9.884 9.889,-9.884 2.64,0 5.122,1.03 6.988,2.898 1.866,1.869 2.893,4.352 2.892,6.993 -0.003,5.452 -4.437,9.886 -9.885,9.886 z m 5.422,-7.403 c -0.297,-0.149 -1.758,-0.868 -2.031,-0.967 -0.272,-0.099 -0.47,-0.149 -0.669,0.148 -0.199,0.297 -0.767,0.967 -0.941,1.166 -0.173,0.198 -0.347,0.223 -0.644,0.074 C 12.89,14.654 11.932,14.341 10.797,13.328 9.914,12.54 9.317,11.567 9.144,11.269 8.971,10.971 9.126,10.811 9.274,10.663 9.408,10.53 9.571,10.316 9.72,10.142 9.87,9.97 9.919,9.846 10.019,9.647 10.118,9.449 10.069,9.275 9.994,9.126 9.919,8.978 9.325,7.515 9.078,6.92 8.837,6.34 8.592,6.419 8.409,6.41 8.236,6.401 8.038,6.4 7.839,6.4 7.641,6.4 7.319,6.474 7.047,6.772 6.775,7.07 6.007,7.789 6.007,9.251 c 0,1.463 1.065,2.876 1.213,3.074 0.148,0.198 2.095,3.2 5.076,4.487 0.709,0.306 1.263,0.489 1.694,0.626 0.712,0.226 1.36,0.194 1.872,0.118 0.571,-0.085 1.758,-0.719 2.006,-1.413 0.248,-0.694 0.248,-1.29 0.173,-1.413 -0.074,-0.125 -0.272,-0.199 -0.569,-0.348 z"
   id="path1" />
	</g>
</g>















</svg>
