<?xml version="1.0" encoding="UTF-8" standalone="no"?>
<!-- Created with Inkscape (http://www.inkscape.org/) -->

<svg
   width="37.30117mm"
   height="10.875248mm"
   viewBox="0 0 162.179 47.283687"
   version="1.1"
   id="svg1"
   inkscape:version="1.4.2 (ebf0e940d0, 2025-05-08)"
   sodipodi:docname="logo-2.svg"
   xmlns:inkscape="http://www.inkscape.org/namespaces/inkscape"
   xmlns:sodipodi="http://sodipodi.sourceforge.net/DTD/sodipodi-0.dtd"
   xmlns="http://www.w3.org/2000/svg"
   xmlns:svg="http://www.w3.org/2000/svg">
  <sodipodi:namedview
     id="namedview1"
     pagecolor="#ffffff"
     bordercolor="#000000"
     borderopacity="0.25"
     inkscape:showpageshadow="2"
     inkscape:pageopacity="0.0"
     inkscape:pagecheckerboard="0"
     inkscape:deskcolor="#d1d1d1"
     inkscape:document-units="mm"
     inkscape:zoom="2.7972292"
     inkscape:cx="247.74516"
     inkscape:cy="58.808194"
     inkscape:window-width="1900"
     inkscape:window-height="1030"
     inkscape:window-x="0"
     inkscape:window-y="0"
     inkscape:window-maximized="1"
     inkscape:current-layer="layer1" />
  <defs
     id="defs1" />
  <g
     inkscape:label="Layer 1"
     inkscape:groupmode="layer"
     id="layer1"
     transform="translate(-1.166711,-2.0142286)">
    <g
       id="g31"
       transform="matrix(0.26458333,0,0,0.26458333,-252.60839,-43.973)">
      <g
         id="g15">
        <path
           class="cls-4"
           d="m 1013.37,233.55 c 0.23,0 0.62,0.11 1.2,0.34 21.66,5.47 32.49,16.02 32.49,31.63 0,9.81 -3.99,17.9 -11.97,24.28 -7.86,6.27 -17.9,9.4 -30.09,9.4 -5.13,0 -10.15,-0.37 -15.05,-1.11 -4.9,-0.74 -9.01,-1.62 -12.31,-2.65 -3.31,-1.03 -6.27,-2.05 -8.89,-3.08 -2.62,-1.03 -4.56,-1.88 -5.81,-2.57 l -1.88,-1.2 v -19.66 h 2.22 c 1.48,2.97 3.33,5.9 5.56,8.81 2.22,2.91 4.98,5.79 8.29,8.64 3.3,2.85 7.32,5.16 12.05,6.93 4.73,1.77 9.83,2.65 15.3,2.65 4.67,0 8.81,-0.54 12.4,-1.62 3.59,-1.08 6.38,-2.39 8.38,-3.93 1.99,-1.54 3.62,-3.33 4.87,-5.39 1.25,-2.05 2.05,-3.9 2.39,-5.56 0.34,-1.65 0.51,-3.22 0.51,-4.7 0,-1.71 -0.23,-3.34 -0.68,-4.87 -0.46,-1.54 -1.14,-2.91 -2.05,-4.1 -0.91,-1.2 -1.88,-2.31 -2.91,-3.33 -1.03,-1.03 -2.2,-1.94 -3.51,-2.74 -1.31,-0.8 -2.54,-1.48 -3.68,-2.05 -1.14,-0.57 -2.39,-1.08 -3.76,-1.54 -1.37,-0.45 -2.45,-0.83 -3.25,-1.11 -0.8,-0.28 -1.65,-0.54 -2.57,-0.77 -0.91,-0.23 -1.43,-0.34 -1.54,-0.34 l -11.63,-3.25 -11.46,-3.08 c -17.9,-6.16 -26.84,-16.24 -26.84,-30.26 0,-4.33 0.91,-8.55 2.74,-12.65 1.82,-4.1 4.45,-7.47 7.86,-10.09 7.18,-5.47 15.96,-8.21 26.33,-8.21 4.67,0 10.2,0.63 16.59,1.88 6.38,1.26 11.57,2.51 15.56,3.76 l 5.99,1.88 0.17,20.01 h -2.91 c -1.37,-2.16 -2.6,-3.99 -3.68,-5.47 -1.09,-1.48 -2.76,-3.51 -5.04,-6.07 -2.28,-2.57 -4.56,-4.67 -6.84,-6.33 -2.28,-1.65 -5.1,-3.1 -8.47,-4.36 -3.36,-1.25 -6.81,-1.88 -10.34,-1.88 -7.07,0 -12.88,2.11 -17.44,6.33 -4.56,4.22 -6.84,8.89 -6.84,14.02 0,4.33 1.99,8.21 5.99,11.63 1.71,1.26 4.1,2.57 7.18,3.93 1.37,0.46 4.22,1.43 8.55,2.91 l 10.26,2.56 8.55,2.39 z"
           id="path7"
           style="fill:#c4c975" />
        <path
           class="cls-4"
           d="m 1081.77,294.25 v 2.22 h -26.16 v -2.22 c 2.05,-1.48 3.14,-3.82 3.25,-7.01 v -42.75 c 0,-9.58 -0.97,-15.73 -2.91,-18.47 v -1.88 c 3.19,0 6.5,-0.54 9.92,-1.62 3.42,-1.08 5.98,-2.14 7.7,-3.16 l 2.57,-1.71 h 2.57 v 69.42 c 0,1.48 0.26,2.82 0.77,4.02 0.51,1.2 1.05,2.02 1.63,2.48 l 0.68,0.68 z"
           id="path8"
           style="fill:#c4c975" />
        <path
           class="cls-4"
           d="m 1163.16,274.76 3.42,2.05 c -1.83,3.65 -3.93,6.73 -6.33,9.23 -7.3,7.64 -16.93,11.46 -28.9,11.46 -11.97,0 -21.2,-3.82 -28.73,-11.46 -7.41,-7.87 -11.12,-17.67 -11.12,-29.41 0,-11.74 3.7,-20.86 11.12,-29.07 6.95,-7.87 15.84,-11.8 26.67,-11.8 5.01,0 9.86,0.63 14.53,1.88 4.67,1.26 8.92,3.39 12.74,6.41 3.82,3.02 6.24,6.64 7.27,10.86 0.45,2.17 0.34,3.99 -0.34,5.47 -0.68,1.48 -1.63,2.57 -2.82,3.25 -1.19,0.68 -2.59,1.2 -4.19,1.54 -2.28,0.46 -4.33,0.32 -6.16,-0.43 -1.83,-0.74 -3.22,-1.82 -4.19,-3.25 -0.97,-1.43 -1.68,-3.05 -2.14,-4.87 -0.68,-2.85 -1.8,-5.41 -3.34,-7.69 -1.54,-2.28 -3.31,-4.07 -5.3,-5.39 -1.99,-1.31 -4.08,-2.31 -6.24,-2.99 -2.17,-0.68 -4.36,-0.85 -6.58,-0.51 -2.22,0.34 -4.19,1.2 -5.9,2.57 -2.85,2.05 -4.99,5.04 -6.41,8.98 -1.43,3.93 -1.82,8.87 -1.2,14.79 0.63,5.93 2.54,12.14 5.73,18.64 1.14,2.05 2.31,4.05 3.51,5.98 1.2,1.94 2.76,3.96 4.7,6.07 1.94,2.11 3.96,3.93 6.07,5.47 2.11,1.54 4.59,2.82 7.44,3.85 2.85,1.03 5.81,1.54 8.89,1.54 3.76,0 7.27,-1.34 10.52,-4.02 3.25,-2.68 5.67,-5.73 7.27,-9.15 z"
           id="path9"
           style="fill:#c4c975" />
        <path
           class="cls-4"
           d="m 1201.63,294.25 v 2.22 h -26.16 v -2.22 c 2.05,-1.48 3.14,-3.82 3.25,-7.01 v -42.75 c 0,-9.58 -0.97,-15.73 -2.91,-18.47 v -1.88 c 3.19,0 6.5,-0.54 9.92,-1.62 3.42,-1.08 5.98,-2.14 7.7,-3.16 l 2.57,-1.71 h 2.57 v 69.42 c 0,1.48 0.26,2.82 0.77,4.02 0.51,1.2 1.05,2.02 1.63,2.48 l 0.68,0.68 z"
           id="path10"
           style="fill:#c4c975" />
        <path
           class="cls-4"
           d="m 1238.57,294.25 v 2.22 h -26.16 v -2.22 c 2.05,-1.48 3.13,-3.82 3.25,-7.01 v -72.5 c 0,-9.58 -0.97,-15.73 -2.91,-18.47 v -2.05 c 3.19,0 6.5,-0.54 9.92,-1.62 3.42,-1.08 5.99,-2.14 7.7,-3.16 l 2.57,-1.54 h 2.57 v 99.18 c 0,1.48 0.26,2.82 0.77,4.02 0.51,1.2 1.05,2.02 1.62,2.48 l 0.68,0.68 z"
           id="path11"
           style="fill:#c4c975" />
        <path
           class="cls-4"
           d="m 1275.67,294.25 v 2.22 h -26.16 v -2.22 c 2.05,-1.48 3.14,-3.82 3.25,-7.01 v -42.75 c 0,-9.58 -0.97,-15.73 -2.91,-18.47 v -1.88 c 3.19,0 6.5,-0.54 9.92,-1.62 3.42,-1.08 5.98,-2.14 7.7,-3.16 l 2.57,-1.71 h 2.57 v 69.42 c 0,1.48 0.26,2.82 0.77,4.02 0.51,1.2 1.05,2.02 1.63,2.48 l 0.68,0.68 z"
           id="path12"
           style="fill:#c4c975" />
        <path
           class="cls-4"
           d="m 1356.21,281.77 c 0,5.7 1.31,9.86 3.93,12.48 v 2.22 h -23.77 l 0.17,-13.51 c -6.96,9.69 -15.73,14.53 -26.33,14.53 -7.07,0 -12.71,-1.57 -16.93,-4.7 -4.22,-3.13 -6.67,-7.78 -7.35,-13.94 -0.68,-6.16 0.57,-11.6 3.76,-16.33 3.19,-4.73 7.87,-7.78 14.02,-9.15 2.28,-0.45 5.1,-0.94 8.47,-1.45 3.36,-0.51 6.07,-0.91 8.12,-1.2 2.05,-0.28 4.27,-0.83 6.67,-1.62 2.39,-0.8 4.25,-1.74 5.56,-2.82 1.31,-1.08 2.42,-2.62 3.34,-4.62 0.91,-1.99 1.37,-4.47 1.37,-7.44 0,-3.99 -0.91,-7.61 -2.74,-10.86 -1.83,-3.25 -4.79,-4.87 -8.89,-4.87 -4.1,0 -7.72,1.8 -10.52,5.39 -2.79,3.59 -4.76,7.84 -5.9,12.74 -0.8,2.97 -2.25,5.3 -4.36,7.01 -2.11,1.71 -4.82,2.22 -8.12,1.54 -5.81,-1.03 -8.21,-4.45 -7.18,-10.26 0.57,-3.19 2.11,-6.1 4.62,-8.72 2.51,-2.62 5.5,-4.64 8.98,-6.07 3.48,-1.43 7.01,-2.48 10.6,-3.16 3.59,-0.68 6.98,-1.03 10.17,-1.03 4.79,0 9.15,0.29 13.08,0.85 3.93,0.57 7.29,1.48 10.09,2.74 2.79,1.26 4.99,2.85 6.58,4.79 1.59,1.94 2.39,4.16 2.39,6.67 0,1.26 -0.23,2.48 -0.68,3.68 -0.46,1.2 -1,2.25 -1.62,3.16 -0.63,0.91 -1.51,1.88 -2.65,2.91 -1.14,1.03 -2.14,1.85 -2.99,2.48 -0.86,0.63 -2.03,1.37 -3.51,2.22 -1.48,0.85 -2.57,1.45 -3.25,1.8 -0.68,0.35 -1.74,0.86 -3.16,1.54 -1.43,0.68 -2.25,1.09 -2.48,1.2 -1.6,0.68 -4.08,1.8 -7.44,3.33 -3.36,1.54 -6.1,2.79 -8.21,3.76 -2.11,0.97 -4.53,2.31 -7.27,4.02 -2.74,1.71 -4.85,3.36 -6.33,4.96 -1.48,1.6 -2.65,3.54 -3.51,5.81 -0.85,2.28 -1.06,4.68 -0.6,7.18 0.68,3.76 2.51,6.78 5.47,9.06 2.96,2.28 6.55,3.36 10.77,3.25 4.9,-0.23 9.06,-2.25 12.48,-6.07 3.42,-3.82 5.13,-8.23 5.13,-13.25 v -17.27 c 0.11,0 1.4,-0.51 3.85,-1.54 2.45,-1.03 4.16,-1.8 5.13,-2.31 0.97,-0.51 2.37,-1.28 4.19,-2.31 1.82,-1.03 3.28,-2.02 4.36,-2.99 1.08,-0.97 1.85,-1.97 2.31,-2.99 l 0.17,39.16 z"
           id="path13"
           style="fill:#c4c975" />
        <path
           class="cls-4"
           d="m 1417.42,294.25 c 2.05,-1.48 3.14,-3.82 3.25,-7.01 v -48.22 c 0,-11.63 -3.31,-17.44 -9.92,-17.44 -3.31,0 -6.36,1.68 -9.15,5.04 -2.79,3.36 -4.85,7.07 -6.16,11.11 -1.31,4.05 -1.96,7.61 -1.96,10.69 v 38.65 c 0,1.48 0.26,2.82 0.77,4.02 0.51,1.2 1.05,2.02 1.63,2.48 l 0.68,0.68 v 2.22 h -26.16 v -2.22 c 2.05,-1.48 3.14,-3.82 3.25,-7.01 v -42.75 c 0,-9.58 -0.97,-15.73 -2.91,-18.47 v -1.88 c 3.19,0 6.5,-0.54 9.92,-1.62 3.42,-1.08 5.98,-2.14 7.7,-3.16 l 2.57,-1.71 h 2.57 v 12.83 c 2.05,-4.1 5.07,-7.55 9.06,-10.34 3.99,-2.79 8.15,-4.19 12.48,-4.19 2.74,0 5.5,0.4 8.29,1.2 2.79,0.8 5.53,2.11 8.21,3.93 2.68,1.82 4.84,4.44 6.5,7.87 1.65,3.42 2.48,7.41 2.48,11.97 v 46.17 c 0,1.48 0.26,2.82 0.77,4.02 0.51,1.2 1.05,2.02 1.62,2.48 l 0.68,0.68 v 2.22 h -26.16 v -2.22 z"
           id="path14"
           style="fill:#c4c975" />
        <path
           class="cls-1"
           d="m 1534.02,257.66 c -0.41,10.71 -4.9,20.09 -13.45,28.13 -8.56,8.04 -18.28,12.01 -29.16,11.92 -10.56,-0.09 -19.94,-4.49 -28.14,-13.21 -7.96,-8.47 -11.74,-18.07 -11.33,-28.78 0.66,-10.79 5.26,-20.2 13.82,-28.24 8.55,-8.04 18.15,-11.98 28.79,-11.81 10.81,0.01 20.25,4.32 28.33,12.92 8.08,8.6 11.79,18.29 11.13,29.08 z m -54.06,34.85 c 2.95,1.14 5.93,1.15 8.95,0.04 3.02,-1.11 5.59,-2.79 7.72,-5.02 2.13,-2.23 4.19,-5.03 6.19,-8.4 2,-3.37 3.56,-6.28 4.69,-8.75 1.12,-2.47 2.13,-4.98 3.02,-7.53 3.79,-10.45 5.42,-19.53 4.9,-27.25 -0.53,-7.72 -3.66,-12.63 -9.4,-14.75 -3.75,-1.33 -7.49,-0.98 -11.22,1.04 -3.73,2.02 -7.19,5.42 -10.36,10.2 -3.17,4.78 -6.12,10.8 -8.85,18.05 -0.54,1.59 -1.07,3.31 -1.61,5.15 -0.54,1.84 -1.09,4.04 -1.66,6.6 -0.57,2.56 -0.96,5.01 -1.2,7.34 -0.24,2.33 -0.35,4.79 -0.35,7.37 0,2.58 0.33,4.85 1,6.8 0.66,1.96 1.63,3.82 2.91,5.59 1.27,1.77 3.03,2.94 5.27,3.49 z"
           id="path15"
           style="fill:#fed95e" />
      </g>
      <g
         id="g26">
        <path
           class="cls-4"
           d="m 990.11,350.17 c -0.62,0.8 -1.55,1.34 -2.8,1.62 -1.25,0.27 -2.6,0.41 -4.05,0.41 h -1.68 c -2.68,0 -5.08,-0.61 -7.2,-1.85 -2.12,-1.23 -3.72,-3.04 -4.81,-5.43 -0.83,-2.06 -1.25,-4.11 -1.25,-6.14 0,-1.92 0.37,-3.73 1.11,-5.43 0.74,-1.7 1.82,-3.18 3.23,-4.43 1.41,-1.25 2.99,-2.11 4.72,-2.58 1.74,-0.47 3.62,-0.71 5.65,-0.71 2.35,0 4.56,0.56 6.63,1.68 v 4.34 c -0.33,0.07 -1,-0.16 -2.04,-0.71 -1.03,-0.55 -1.82,-0.88 -2.36,-1 -0.54,-0.12 -1.41,-0.18 -2.61,-0.18 -1.34,0 -2.61,0.21 -3.8,0.62 -1.19,0.42 -2.24,1.08 -3.15,1.98 -1.81,2.1 -2.71,4.34 -2.71,6.73 0,1.88 0.58,3.69 1.74,5.43 0.29,0.36 0.62,0.72 1,1.09 0.38,0.36 0.82,0.74 1.33,1.14 1.66,1.01 3.47,1.52 5.43,1.52 1.34,0 2.68,-0.26 4.02,-0.78 0.83,-0.67 1.72,-1.27 2.66,-1.83 0.43,-0.15 0.74,-0.18 0.92,-0.11 v 4.6 z"
           id="path16"
           style="fill:#c4c975" />
        <path
           class="cls-4"
           d="m 1047.45,339.27 c 0,3.66 -1.33,6.78 -3.99,9.37 -2.66,2.59 -5.86,3.88 -9.58,3.88 -3.72,0 -6.98,-1.29 -9.64,-3.88 -2.66,-2.59 -3.99,-5.73 -3.99,-9.42 0,-3.69 1.3,-6.92 3.88,-9.58 2.59,-2.66 5.75,-3.99 9.47,-3.99 3.72,0 7.06,1.32 9.77,3.96 2.71,2.64 4.07,5.86 4.07,9.66 z m -4.07,0 c 0,-2.63 -0.9,-4.87 -2.69,-6.72 -1.79,-1.85 -3.97,-2.78 -6.54,-2.78 -2.57,0 -4.9,0.89 -6.76,2.67 -1.86,1.78 -2.8,3.95 -2.8,6.5 0,2.55 0.9,4.77 2.71,6.64 1.81,1.87 4,2.81 6.57,2.81 2.57,0 4.79,-0.88 6.68,-2.65 1.88,-1.76 2.82,-3.92 2.82,-6.48 z"
           id="path17"
           style="fill:#c4c975" />
        <path
           class="cls-4"
           d="m 1099.41,351.71 h -4.62 v -17.59 c -0.36,-1.3 -1.08,-2.35 -2.14,-3.15 -1.06,-0.8 -2.26,-1.19 -3.62,-1.19 -0.73,0 -1.5,0.15 -2.3,0.43 -1.02,0.54 -1.91,1.22 -2.66,2.04 -0.75,0.81 -1.29,1.75 -1.62,2.8 v 16.67 h -4.29 v -25.25 h 4.29 v 4.34 c 0.94,-1.56 2.06,-2.76 3.37,-3.61 1.3,-0.85 2.86,-1.28 4.67,-1.28 2.46,0 4.48,0.75 6.05,2.25 1.58,1.5 2.52,3.52 2.85,6.05 v 17.48 z"
           id="path18"
           style="fill:#c4c975" />
        <path
           class="cls-4"
           d="m 1150.99,330.2 h -6.95 v 21.5 h -4.51 v -21.5 h -5 v -3.42 h 5 v -11.35 c 0.36,-1.99 1.21,-3.57 2.55,-4.75 1.33,-1.18 3.01,-1.76 5.02,-1.76 0.4,0 0.83,0.03 1.29,0.08 0.46,0.05 0.86,0.12 1.2,0.19 0.35,0.07 0.81,0.22 1.4,0.43 v 4.23 c -0.96,-0.61 -1.98,-0.92 -3.09,-0.92 -1.25,0 -2.28,0.42 -3.09,1.25 -0.15,0.22 -0.3,0.46 -0.47,0.73 -0.17,0.27 -0.27,0.52 -0.3,0.73 v 11.13 h 6.95 v 3.42 z"
           id="path19"
           style="fill:#c4c975" />
        <path
           class="cls-4"
           d="m 1209.47,345.79 c -1.52,2.03 -3.37,3.62 -5.54,4.78 -2.17,1.16 -4.47,1.74 -6.9,1.74 -2.43,0 -4.53,-0.56 -6.63,-1.68 -1.95,-1.27 -3.44,-2.91 -4.45,-4.94 -1.02,-2.03 -1.52,-4.24 -1.52,-6.62 0,-3.22 0.93,-6.11 2.8,-8.66 1.86,-2.55 3.78,-3.98 5.75,-4.29 1.97,-0.31 3.32,-0.46 4.05,-0.46 2.32,0 4.48,0.53 6.49,1.57 2.01,1.05 3.48,2.65 4.43,4.81 0.94,2.15 1.41,4.68 1.41,7.57 h -20.42 c 0,2.46 0.78,4.58 2.33,6.35 1.55,1.77 3.5,2.66 5.85,2.66 0.72,0 1.37,-0.07 1.95,-0.22 1.44,-0.22 2.69,-0.73 3.74,-1.55 1.05,-0.82 2.08,-1.91 3.09,-3.29 l 3.58,2.23 z m -4.5,-9.45 c -0.4,-2.03 -1.36,-3.68 -2.88,-4.97 -1.52,-1.29 -3.31,-1.93 -5.38,-1.93 -1.85,0 -3.46,0.68 -4.86,2.04 -1.39,1.36 -2.31,2.98 -2.74,4.86 h 15.85 z"
           id="path20"
           style="fill:#c4c975" />
        <path
           class="cls-4"
           d="m 1252.15,317.61 c -0.36,0.07 -0.63,0.11 -0.81,0.11 -0.87,0 -1.59,-0.32 -2.15,-0.95 -0.56,-0.63 -0.84,-1.38 -0.84,-2.25 0,-0.54 0.12,-1.02 0.35,-1.44 0.23,-0.42 0.64,-0.77 1.22,-1.06 0.26,-0.07 0.55,-0.16 0.9,-0.27 0.35,-0.11 0.66,-0.13 0.95,-0.05 0.83,0.11 1.48,0.45 1.95,1.03 0.47,0.58 0.7,1.23 0.7,1.96 0,1.52 -0.76,2.5 -2.28,2.93 z m 1.47,34.1 h -4.51 v -25.09 h 4.51 z"
           id="path21"
           style="fill:#c4c975" />
        <path
           class="cls-4"
           d="m 1312.96,330.26 h -4.51 v 21.45 h -4.4 v -21.45 h -3.96 v -3.48 h 3.96 v -10.15 h 4.4 v 10.15 h 4.51 z"
           id="path22"
           style="fill:#c4c975" />
        <path
           class="cls-4"
           d="m 1371.6,351.71 h -4.07 v -5 c -0.9,1.79 -2.28,3.19 -4.13,4.19 -1.85,1 -3.78,1.51 -5.81,1.51 -1.02,0 -1.99,-0.11 -2.93,-0.33 -0.94,-0.22 -2.14,-0.78 -3.59,-1.69 -1.45,-0.91 -2.74,-2.43 -3.88,-4.57 -1.14,-2.14 -1.71,-4.43 -1.71,-6.85 0,-2.03 0.43,-4.01 1.3,-5.93 0.61,-1.2 1.61,-2.57 3,-4.11 1.39,-1.54 3.39,-2.55 6.02,-3.02 0.29,0 0.6,-0.02 0.95,-0.05 0.34,-0.04 0.6,-0.05 0.78,-0.05 2.02,0 3.86,0.45 5.54,1.36 1.68,0.91 3.09,2.23 4.24,3.96 v -4.67 h 4.29 z m -5.1,-8.02 c 0.54,-1.38 0.81,-2.84 0.81,-4.37 0,-2.04 -0.47,-3.86 -1.41,-5.46 -0.94,-1.6 -2.35,-2.79 -4.22,-3.55 -0.65,-0.18 -1.44,-0.29 -2.38,-0.33 -0.94,-0.04 -1.48,-0.05 -1.62,-0.05 -2.31,0.36 -4.17,1.5 -5.58,3.41 -1.41,1.91 -2.11,4.01 -2.11,6.31 0,1.42 0.26,2.72 0.79,3.9 0.53,1.18 1.47,2.33 2.84,3.44 1.37,1.11 3.07,1.67 5.09,1.67 1.69,0 3.23,-0.43 4.6,-1.28 1.37,-0.85 2.44,-2.08 3.2,-3.69 z"
           id="path23"
           style="fill:#c4c975" />
        <path
           class="cls-4"
           d="m 1423.35,327.54 -2.61,3.58 c -0.94,-0.83 -1.92,-1.25 -2.93,-1.25 -1.41,0 -2.7,0.7 -3.86,2.09 -1.16,1.39 -1.92,2.92 -2.28,4.59 v 15.15 h -4.4 v -25.03 h 4.07 v 6.14 c 0.47,-1.66 1.31,-3.18 2.52,-4.53 1.21,-1.36 2.61,-2.14 4.21,-2.36 1.88,0 3.64,0.54 5.27,1.63 z"
           id="path24"
           style="fill:#c4c975" />
        <path
           class="cls-4"
           d="m 1469.34,317.61 c -0.36,0.07 -0.63,0.11 -0.81,0.11 -0.87,0 -1.59,-0.32 -2.15,-0.95 -0.56,-0.63 -0.84,-1.38 -0.84,-2.25 0,-0.54 0.12,-1.02 0.35,-1.44 0.23,-0.42 0.64,-0.77 1.22,-1.06 0.26,-0.07 0.55,-0.16 0.9,-0.27 0.35,-0.11 0.66,-0.13 0.95,-0.05 0.83,0.11 1.48,0.45 1.95,1.03 0.47,0.58 0.7,1.23 0.7,1.96 0,1.52 -0.76,2.5 -2.28,2.93 z m 1.47,34.1 h -4.51 v -25.09 h 4.51 z"
           id="path25"
           style="fill:#c4c975" />
        <path
           class="cls-4"
           d="m 1534.5,351.71 h -4.07 v -5 c -0.9,1.79 -2.28,3.19 -4.13,4.19 -1.85,1 -3.78,1.51 -5.81,1.51 -1.02,0 -1.99,-0.11 -2.93,-0.33 -0.94,-0.22 -2.14,-0.78 -3.59,-1.69 -1.45,-0.91 -2.74,-2.43 -3.88,-4.57 -1.14,-2.14 -1.71,-4.43 -1.71,-6.85 0,-2.03 0.43,-4.01 1.3,-5.93 0.61,-1.2 1.61,-2.57 3,-4.11 1.39,-1.54 3.39,-2.55 6.02,-3.02 0.29,0 0.6,-0.02 0.95,-0.05 0.34,-0.04 0.6,-0.05 0.78,-0.05 2.02,0 3.86,0.45 5.54,1.36 1.68,0.91 3.09,2.23 4.24,3.96 v -4.67 h 4.29 z m -5.1,-8.02 c 0.54,-1.38 0.81,-2.84 0.81,-4.37 0,-2.04 -0.47,-3.86 -1.41,-5.46 -0.94,-1.6 -2.35,-2.79 -4.22,-3.55 -0.65,-0.18 -1.44,-0.29 -2.38,-0.33 -0.94,-0.04 -1.48,-0.05 -1.62,-0.05 -2.31,0.36 -4.17,1.5 -5.58,3.41 -1.41,1.91 -2.11,4.01 -2.11,6.31 0,1.42 0.26,2.72 0.79,3.9 0.53,1.18 1.47,2.33 2.84,3.44 1.37,1.11 3.07,1.67 5.09,1.67 1.69,0 3.23,-0.43 4.6,-1.28 1.37,-0.85 2.44,-2.08 3.2,-3.69 z"
           id="path26"
           style="fill:#c4c975" />
      </g>
      <g
         id="g28">
        <path
           class="cls-4"
           d="m 1521.13,192.79 c -4.67,10.94 -3.16,22.96 2.96,32.19 8.98,-2.95 16.69,-9.6 20.69,-18.98 4.67,-10.94 3.16,-22.96 -2.96,-32.19 -8.98,2.95 -16.69,9.6 -20.69,18.98 z"
           id="path27"
           style="fill:#c4c975" />
        <path
           class="cls-4"
           d="m 1544.04,199.38 c -10.82,4.95 -17.79,14.85 -19.48,25.79 8.63,3.86 18.8,4.14 28.07,-0.1 10.82,-4.95 17.79,-14.85 19.48,-25.79 -8.63,-3.86 -18.8,-4.14 -28.07,0.1 z"
           id="path28"
           style="fill:#c4c975" />
      </g>
      <path
         class="cls-4"
         d="m 1064.37,202.45 c -5.49,4.4 -8.07,11.09 -7.46,17.61 5.5,0.97 11.38,-0.34 16.09,-4.11 5.49,-4.4 8.07,-11.09 7.46,-17.61 -5.5,-0.97 -11.38,0.34 -16.09,4.11 z"
         id="path29"
         style="fill:#c4c975" />
      <path
         class="cls-4"
         d="m 1184.24,202.45 c -5.49,4.4 -8.07,11.09 -7.46,17.61 5.5,0.97 11.38,-0.34 16.09,-4.11 5.49,-4.4 8.07,-11.09 7.46,-17.61 -5.5,-0.97 -11.38,0.34 -16.09,4.11 z"
         id="path30"
         style="fill:#c4c975" />
      <path
         class="cls-4"
         d="m 1258.27,202.45 c -5.49,4.4 -8.07,11.09 -7.46,17.61 5.5,0.97 11.38,-0.34 16.09,-4.11 5.49,-4.4 8.07,-11.09 7.46,-17.61 -5.5,-0.97 -11.38,0.34 -16.09,4.11 z"
         id="path31"
         style="fill:#c4c975" />
    </g>
  </g>
</svg>
