<?xml version="1.0" encoding="UTF-8" standalone="no"?>
<!-- Created with Inkscape (http://www.inkscape.org/) -->

<svg
   width="8mm"
   height="8mm"
   viewBox="0 0 33.333333 33.333333"
   version="1.1"
   id="svg1"
   inkscape:version="1.4.2 (ebf0e940d0, 2025-05-08)"
   sodipodi:docname="logo.svg"
   xmlns:inkscape="http://www.inkscape.org/namespaces/inkscape"
   xmlns:sodipodi="http://sodipodi.sourceforge.net/DTD/sodipodi-0.dtd"
   xmlns="http://www.w3.org/2000/svg"
   xmlns:svg="http://www.w3.org/2000/svg">
  <sodipodi:namedview
     id="namedview1"
     pagecolor="#ffffff"
     bordercolor="#000000"
     borderopacity="0.25"
     inkscape:showpageshadow="2"
     inkscape:pageopacity="0.0"
     inkscape:pagecheckerboard="0"
     inkscape:deskcolor="#d1d1d1"
     inkscape:document-units="mm"
     inkscape:zoom="11.445679"
     inkscape:cx="44.470931"
     inkscape:cy="24.244957"
     inkscape:window-width="1900"
     inkscape:window-height="1030"
     inkscape:window-x="0"
     inkscape:window-y="0"
     inkscape:window-maximized="1"
     inkscape:current-layer="layer1" />
  <defs
     id="defs1" />
  <g
     inkscape:label="Layer 1"
     inkscape:groupmode="layer"
     id="layer1">
    <path
       class="cls-1"
       d="m 22.184956,22.675865 c -0.108479,2.833686 -1.296458,5.315475 -3.558646,7.442725 -2.264833,2.12725 -4.836583,3.17765 -7.71525,3.15383 -2.7940007,-0.0238 -5.2757916,-1.18797 -7.4453756,-3.49514 -2.106083,-2.24102 -3.10620801,-4.781019 -2.99772901,-7.614705 0.174625,-2.854854 1.39170801,-5.344583 3.65654201,-7.471833 2.2621869,-2.12725 4.8021869,-3.169708 7.6173546,-3.124729 2.860146,0.0026 5.357812,1.143 7.495646,3.418416 2.137833,2.275417 3.119437,4.83923 2.944812,7.694086 z M 7.8815803,31.89659 c 0.780521,0.30163 1.568979,0.30427 2.3680207,0.0106 0.799043,-0.29368 1.479022,-0.73818 2.042584,-1.3282 0.563563,-0.59002 1.108604,-1.33086 1.637771,-2.2225 0.529167,-0.89165 0.941917,-1.661589 1.240896,-2.315109 0.296333,-0.65352 0.563562,-1.31762 0.799041,-1.992306 1.002771,-2.764897 1.434042,-5.167313 1.296459,-7.209896 -0.140229,-2.042584 -0.968375,-3.341688 -2.487084,-3.902605 -0.992187,-0.351895 -1.981729,-0.259291 -2.968624,0.275167 -0.986897,0.534458 -1.9023557,1.434042 -2.7410847,2.69875 -0.838729,1.264708 -1.61925,2.8575 -2.341562,4.775729 -0.142875,0.420688 -0.283104,0.875771 -0.425979,1.362605 -0.142875,0.48683 -0.288396,1.06892 -0.439209,1.74625 -0.1508119,0.677326 -0.2539999,1.325556 -0.3174999,1.942036 -0.0635,0.61648 -0.0926,1.26736 -0.0926,1.949979 0,0.68263 0.08731,1.28323 0.264583,1.79917 0.1746249,0.51858 0.4312709,1.01071 0.7699379,1.47902 0.336021,0.46831 0.801687,0.77787 1.394354,0.92339 z"
       id="path15"
       style="fill:#fed95e;stroke-width:0.264583" />
    <path
       class="cls-4"
       d="m 18.774477,5.5123457 c -1.235604,2.8945419 -0.836084,6.0748333 0.783166,8.5169383 2.375959,-0.780521 4.415896,-2.54 5.47423,-5.0217924 C 26.267477,6.1129497 25.867956,2.9326587 24.248706,0.49055471 21.872748,1.2710747 19.83281,3.0305547 18.774477,5.5123457 Z"
       id="path27"
       style="fill:#c4c975;stroke-width:0.264583" />
    <path
       class="cls-4"
       d="m 24.836081,7.2559497 c -2.862792,1.3096879 -4.706938,3.9290633 -5.154083,6.8236043 2.283354,1.021292 4.974166,1.095375 7.426854,-0.02646 2.862791,-1.309687 4.706937,-3.929062 5.154083,-6.8236043 -2.283354,-1.021292 -4.974167,-1.095375 -7.426854,0.02646 z"
       id="path28"
       style="fill:#c4c975;stroke-width:0.264583" />
  </g>
</svg>
